<svg xmlns="http://www.w3.org/2000/svg" xmlns:xlink="http://www.w3.org/1999/xlink" zoomAndPan="magnify" preserveAspectRatio="xMidYMid meet" version="1.0" viewBox="28.12 226.62 758.92 360.7"><path fill="#007a8a" d="M 29.832031 518.199219 L 36.566406 518.199219 L 36.566406 569.265625 L 29.832031 569.265625 Z M 29.832031 518.199219 " fill-opacity="1" fill-rule="nonzero"/><path fill="#007a8a" d="M 54.5 531.324219 L 54.710938 536.089844 C 57.605469 532.445312 61.398438 530.617188 66.078125 530.617188 C 74.089844 530.617188 78.136719 535.144531 78.210938 544.195312 L 78.210938 569.265625 L 71.722656 569.265625 L 71.722656 544.160156 C 71.699219 541.425781 71.070312 539.402344 69.84375 538.09375 C 68.617188 536.785156 66.707031 536.128906 64.113281 536.128906 C 62.003906 536.128906 60.152344 536.691406 58.566406 537.808594 C 56.972656 538.929688 55.734375 540.402344 54.847656 542.230469 L 54.847656 569.265625 L 48.359375 569.265625 L 48.359375 531.324219 Z M 54.5 531.324219 " fill-opacity="1" fill-rule="nonzero"/><path fill="#007a8a" d="M 110.589844 559.195312 C 110.589844 557.449219 109.925781 556.089844 108.597656 555.117188 C 107.28125 554.148438 104.980469 553.3125 101.691406 552.609375 C 98.40625 551.914062 95.800781 551.074219 93.871094 550.089844 C 91.945312 549.101562 90.515625 547.933594 89.597656 546.582031 C 88.671875 545.222656 88.210938 543.609375 88.210938 541.738281 C 88.210938 538.625 89.527344 535.992188 92.152344 533.84375 C 94.78125 531.691406 98.140625 530.617188 102.234375 530.617188 C 106.535156 530.617188 110.023438 531.730469 112.699219 533.953125 C 115.375 536.171875 116.714844 539.007812 116.714844 542.46875 L 110.191406 542.46875 C 110.191406 540.695312 109.4375 539.167969 107.933594 537.882812 C 106.425781 536.597656 104.523438 535.957031 102.234375 535.957031 C 99.871094 535.957031 98.023438 536.472656 96.6875 537.5 C 95.359375 538.523438 94.699219 539.867188 94.699219 541.527344 C 94.699219 543.09375 95.316406 544.277344 96.550781 545.074219 C 97.792969 545.863281 100.035156 546.625 103.273438 547.347656 C 106.511719 548.074219 109.132812 548.9375 111.144531 549.941406 C 113.152344 550.949219 114.644531 552.160156 115.617188 553.574219 C 116.585938 554.992188 117.074219 556.710938 117.074219 558.738281 C 117.074219 562.132812 115.714844 564.855469 112.996094 566.90625 C 110.285156 568.949219 106.769531 569.96875 102.445312 569.96875 C 99.40625 569.96875 96.714844 569.433594 94.378906 568.363281 C 92.035156 567.285156 90.207031 565.78125 88.890625 563.855469 C 87.574219 561.921875 86.914062 559.832031 86.914062 557.589844 L 93.402344 557.589844 C 93.515625 559.765625 94.382812 561.492188 96.007812 562.765625 C 97.628906 564.035156 99.777344 564.667969 102.445312 564.667969 C 104.898438 564.667969 106.871094 564.175781 108.351562 563.1875 C 109.839844 562.191406 110.589844 560.859375 110.589844 559.195312 Z M 110.589844 559.195312 " fill-opacity="1" fill-rule="nonzero"/><path fill="#007a8a" d="M 149.441406 565.507812 C 146.921875 568.484375 143.21875 569.96875 138.332031 569.96875 C 134.289062 569.96875 131.207031 568.796875 129.09375 566.449219 C 126.972656 564.09375 125.902344 560.613281 125.878906 556.007812 L 125.878906 531.324219 L 132.367188 531.324219 L 132.367188 555.835938 C 132.367188 561.585938 134.703125 564.460938 139.382812 564.460938 C 144.339844 564.460938 147.636719 562.617188 149.269531 558.925781 L 149.269531 531.324219 L 155.753906 531.324219 L 155.753906 569.265625 L 149.589844 569.265625 Z M 149.441406 565.507812 " fill-opacity="1" fill-rule="nonzero"/><path fill="#007a8a" d="M 184.453125 537.140625 C 183.472656 536.976562 182.410156 536.894531 181.265625 536.894531 C 177.007812 536.894531 174.117188 538.707031 172.59375 542.332031 L 172.59375 569.265625 L 166.105469 569.265625 L 166.105469 531.324219 L 172.417969 531.324219 L 172.53125 535.707031 C 174.65625 532.316406 177.671875 530.617188 181.574219 530.617188 C 182.835938 530.617188 183.792969 530.785156 184.453125 531.113281 Z M 184.453125 537.140625 " fill-opacity="1" fill-rule="nonzero"/><path fill="#007a8a" d="M 199.71875 522.128906 L 199.71875 531.324219 L 206.796875 531.324219 L 206.796875 536.339844 L 199.71875 536.339844 L 199.71875 559.863281 C 199.71875 561.390625 200.03125 562.527344 200.65625 563.285156 C 201.289062 564.046875 202.367188 564.421875 203.894531 564.421875 C 204.636719 564.421875 205.660156 564.285156 206.972656 564.003906 L 206.972656 569.265625 C 205.265625 569.734375 203.605469 569.96875 201.992188 569.96875 C 199.089844 569.96875 196.90625 569.09375 195.429688 567.339844 C 193.964844 565.582031 193.230469 563.09375 193.230469 559.863281 L 193.230469 536.339844 L 186.324219 536.339844 L 186.324219 531.324219 L 193.230469 531.324219 L 193.230469 522.128906 Z M 199.71875 522.128906 " fill-opacity="1" fill-rule="nonzero"/><path fill="#007a8a" d="M 230.625 569.96875 C 225.472656 569.96875 221.285156 568.285156 218.058594 564.902344 C 214.835938 561.519531 213.226562 557.003906 213.226562 551.351562 L 213.226562 550.152344 C 213.226562 546.390625 213.945312 543.027344 215.375 540.070312 C 216.816406 537.113281 218.828125 534.800781 221.40625 533.125 C 223.992188 531.457031 226.796875 530.617188 229.820312 530.617188 C 234.742188 530.617188 238.574219 532.246094 241.3125 535.5 C 244.054688 538.746094 245.425781 543.394531 245.425781 549.449219 L 245.425781 552.152344 L 219.714844 552.152344 C 219.804688 555.894531 220.894531 558.917969 222.988281 561.222656 C 225.078125 563.519531 227.738281 564.667969 230.96875 564.667969 C 233.257812 564.667969 235.199219 564.207031 236.789062 563.273438 C 238.375 562.335938 239.769531 561.09375 240.964844 559.554688 L 244.929688 562.644531 C 241.75 567.53125 236.980469 569.96875 230.625 569.96875 Z M 229.820312 535.957031 C 227.199219 535.957031 225 536.90625 223.222656 538.808594 C 221.441406 540.710938 220.34375 543.382812 219.921875 546.816406 L 238.9375 546.816406 L 238.9375 546.335938 C 238.746094 543.03125 237.855469 540.476562 236.269531 538.675781 C 234.679688 536.863281 232.527344 535.957031 229.820312 535.957031 Z M 229.820312 535.957031 " fill-opacity="1" fill-rule="nonzero"/><path fill="#007a8a" d="M 268.640625 564.667969 C 270.953125 564.667969 272.976562 563.972656 274.707031 562.570312 C 276.4375 561.167969 277.394531 559.414062 277.585938 557.304688 L 283.726562 557.304688 C 283.609375 559.480469 282.859375 561.554688 281.476562 563.519531 C 280.097656 565.480469 278.257812 567.046875 275.953125 568.214844 C 273.648438 569.382812 271.210938 569.96875 268.640625 569.96875 C 263.476562 569.96875 259.363281 568.246094 256.308594 564.792969 C 253.261719 561.34375 251.738281 556.625 251.738281 550.644531 L 251.738281 549.558594 C 251.738281 545.863281 252.410156 542.574219 253.765625 539.699219 C 255.125 536.828125 257.070312 534.59375 259.609375 533.003906 C 262.144531 531.414062 265.144531 530.617188 268.601562 530.617188 C 272.859375 530.617188 276.398438 531.898438 279.214844 534.449219 C 282.03125 536.992188 283.535156 540.300781 283.726562 544.371094 L 277.585938 544.371094 C 277.394531 541.917969 276.464844 539.902344 274.792969 538.328125 C 273.117188 536.746094 271.054688 535.957031 268.601562 535.957031 C 265.308594 535.957031 262.753906 537.140625 260.941406 539.515625 C 259.128906 541.886719 258.222656 545.316406 258.222656 549.804688 L 258.222656 551.027344 C 258.222656 555.402344 259.121094 558.773438 260.917969 561.136719 C 262.722656 563.492188 265.292969 564.667969 268.640625 564.667969 Z M 268.640625 564.667969 " fill-opacity="1" fill-rule="nonzero"/><path fill="#007a8a" d="M 297.996094 535.917969 C 300.878906 532.386719 304.621094 530.617188 309.226562 530.617188 C 317.238281 530.617188 321.285156 535.144531 321.359375 544.195312 L 321.359375 569.265625 L 314.875 569.265625 L 314.875 544.160156 C 314.847656 541.425781 314.222656 539.402344 312.996094 538.09375 C 311.765625 536.785156 309.855469 536.128906 307.261719 536.128906 C 305.152344 536.128906 303.304688 536.691406 301.714844 537.808594 C 300.125 538.929688 298.886719 540.402344 297.996094 542.230469 L 297.996094 569.265625 L 291.507812 569.265625 L 291.507812 515.394531 L 297.996094 515.394531 Z M 297.996094 535.917969 " fill-opacity="1" fill-rule="nonzero"/><path fill="#b8be14" d="M 164.613281 226.632812 C 159.652344 226.632812 157.5625 230.152344 159.933594 234.492188 L 175.425781 262.824219 C 185.878906 280.195312 214.066406 291.824219 245.722656 291.824219 L 315.144531 291.824219 C 320.101562 291.824219 322.191406 288.300781 319.820312 283.964844 L 304.347656 255.628906 C 293.894531 238.261719 265.6875 226.632812 234.046875 226.632812 Z M 164.613281 226.632812 " fill-opacity="1" fill-rule="nonzero"/><path fill="#007a8a" d="M 275.714844 309.785156 L 185.863281 309.785156 C 156.574219 309.835938 151.648438 317.140625 151.648438 326.191406 L 208.652344 326.191406 C 221.253906 326.191406 231.457031 331.097656 231.457031 337.132812 L 231.457031 363.425781 C 231.457031 369.460938 221.253906 374.347656 208.667969 374.347656 L 140.234375 374.347656 C 127.648438 374.347656 117.460938 369.460938 117.460938 363.425781 L 117.460938 254.136719 C 117.460938 248.003906 127.804688 243.042969 142.796875 243.042969 L 147.5625 243.042969 L 138.695312 226.617188 L 73.734375 226.617188 C 48.542969 226.617188 28.121094 236.40625 28.121094 248.492188 L 28.121094 368.863281 C 28.121094 380.949219 48.542969 390.144531 73.734375 390.144531 L 275.183594 390.144531 C 300.375 390.144531 320.796875 380.949219 320.796875 368.863281 L 320.796875 331.414062 C 320.796875 319.46875 300.609375 309.785156 275.714844 309.785156 " fill-opacity="1" fill-rule="nonzero"/><path fill="#b8be14" d="M 62.9375 466.328125 C 67.484375 466.503906 74.394531 465.84375 78.347656 464.839844 C 81.15625 464.335938 85.613281 462.417969 88.3125 460.546875 C 90.089844 459.554688 92.617188 456.851562 93.964844 454.480469 C 95.316406 452.125 95.988281 449.625 95.988281 447.015625 C 96.226562 445.253906 95.316406 441.90625 93.964844 439.550781 C 93.257812 437.886719 90.734375 435.167969 88.3125 433.484375 C 86.761719 432.054688 82.289062 430.089844 78.347656 429.101562 C 76.148438 428.265625 69.261719 427.605469 62.9375 427.605469 L 35.625 427.605469 C 31.484375 427.605469 28.140625 430.953125 28.140625 435.085938 L 28.140625 490.28125 C 28.140625 491.746094 29.316406 492.921875 30.773438 492.921875 L 39.453125 492.921875 C 43.601562 492.921875 45.089844 489.574219 45.089844 485.441406 L 45.089844 471.613281 C 45.089844 468.6875 47.460938 466.328125 50.378906 466.328125 Z M 47.726562 455.125 C 46.265625 455.125 45.089844 453.945312 45.089844 452.484375 L 45.089844 444.078125 C 45.089844 441.152344 47.460938 438.796875 50.378906 438.796875 L 62.105469 438.796875 C 64.488281 438.71875 67.863281 439.03125 69.640625 439.503906 C 70.910156 439.753906 72.839844 440.601562 73.953125 441.421875 C 76.089844 442.976562 77.15625 444.847656 77.15625 447.015625 C 77.515625 448.492188 76.089844 450.960938 73.953125 452.515625 C 73.328125 453.097656 71.398438 453.960938 69.640625 454.433594 C 68.726562 454.828125 65.367188 455.140625 62.105469 455.140625 L 47.726562 455.140625 Z M 106.742188 485.441406 C 106.742188 489.574219 110.101562 492.921875 114.246094 492.921875 L 162.976562 492.921875 L 162.976562 487.328125 C 162.976562 484.230469 159.621094 481.730469 155.488281 481.730469 L 131.195312 481.730469 C 127.050781 481.730469 123.710938 478.386719 123.710938 474.253906 L 123.710938 430.246094 C 123.710938 428.785156 122.515625 427.605469 121.054688 427.605469 L 114.246094 427.605469 C 110.101562 427.605469 106.742188 430.953125 106.742188 435.085938 Z M 252.378906 484.058594 C 255.519531 486.335938 262.878906 489.574219 268.828125 491.289062 C 274.777344 493 281.054688 493.847656 287.644531 493.847656 C 290.578125 494.019531 296.203125 493.378906 300.1875 492.402344 C 302.980469 491.898438 307.6875 490.109375 310.71875 488.394531 C 312.914062 487.390625 316.164062 484.640625 317.96875 482.234375 C 319.777344 479.847656 320.683594 477.175781 320.683594 474.253906 C 321.0625 471.628906 319.570312 467.539062 317.339844 465.152344 C 316.070312 463.4375 312.320312 460.765625 308.976562 459.179688 C 306.875 458.035156 302.023438 456.289062 298.179688 455.265625 C 295.554688 454.574219 290.722656 453.253906 287.378906 452.328125 C 284.039062 451.402344 281.242188 450.363281 279.011719 449.25 C 276.785156 448.128906 275.671875 446.699219 275.671875 444.957031 C 275.511719 444.078125 276.109375 442.628906 276.988281 441.734375 C 277.476562 441.089844 279.03125 440.097656 280.472656 439.535156 C 281.355469 439.125 283.535156 438.5625 285.355469 438.277344 C 287.160156 437.992188 288.949219 437.855469 290.722656 437.855469 C 292.902344 437.710938 297.109375 438.261719 300.140625 439.0625 C 302.304688 439.519531 305.648438 440.902344 307.597656 442.144531 L 315.441406 434.648438 C 316.496094 433.640625 316.308594 432.304688 315.035156 431.675781 C 313.261719 430.5625 308.082031 428.925781 303.480469 428.015625 C 298.882812 427.121094 294.0625 426.664062 289.058594 426.664062 C 286.328125 426.519531 280.992188 427.070312 277.148438 427.875 C 274.460938 428.265625 269.863281 429.882812 266.898438 431.457031 C 264.75 432.382812 261.515625 434.976562 259.644531 437.238281 C 257.796875 439.519531 256.851562 442.113281 256.851562 445.035156 C 256.378906 447.675781 258.203125 451.730469 260.902344 454.089844 C 262.472656 455.785156 266.847656 458.378906 270.664062 459.871094 C 272.71875 460.796875 277.382812 462.257812 281.054688 463.140625 C 283.566406 463.6875 288.101562 464.945312 291.160156 465.9375 C 293.359375 466.535156 296.78125 468.058594 298.835938 469.347656 C 300.878906 470.621094 301.898438 472.320312 301.898438 474.441406 C 302.351562 476.136719 300.578125 478.761719 297.925781 480.320312 C 295.273438 481.871094 291.851562 482.660156 287.675781 482.660156 C 284.679688 482.894531 278.964844 481.96875 274.917969 480.601562 C 270.882812 479.234375 267.464844 477.519531 266.0625 476.5 C 265.292969 475.933594 263.695312 476.152344 262.503906 476.988281 Z M 252.378906 484.058594 " fill-opacity="1" fill-rule="nonzero"/><path fill="#b8be14" d="M 222.273438 492.167969 C 225.523438 491.617188 231.019531 489.371094 234.519531 487.125 C 237.292969 485.710938 241.140625 481.730469 243.101562 478.210938 C 244.734375 476.167969 246.054688 470.417969 246.054688 465.386719 L 246.054688 430.230469 C 246.054688 428.769531 244.96875 427.589844 243.621094 427.589844 L 235.632812 427.589844 C 231.816406 427.589844 228.742188 430.9375 228.742188 435.070312 L 228.742188 466.3125 C 228.914062 468.453125 228.222656 471.753906 227.203125 473.683594 C 226.667969 475.066406 224.722656 477.207031 222.839844 478.449219 C 218.824219 481.246094 213.734375 482.644531 207.582031 482.644531 C 203.175781 483.113281 196.347656 481.246094 192.328125 478.449219 C 190.945312 477.753906 188.984375 475.617188 187.964844 473.683594 C 187.117188 472.601562 186.429688 469.300781 186.429688 466.3125 L 186.429688 430.230469 C 186.429688 428.769531 185.328125 427.589844 183.992188 427.589844 L 176.007812 427.589844 C 172.191406 427.589844 169.113281 430.9375 169.113281 435.070312 L 169.113281 465.371094 C 168.769531 468.941406 170.101562 474.691406 172.066406 478.195312 C 173.054688 480.695312 176.898438 484.6875 180.667969 487.109375 C 182.769531 488.773438 188.246094 491.023438 192.90625 492.152344 C 195.890625 493.078125 202.46875 493.832031 207.597656 493.832031 C 211.035156 494.035156 217.613281 493.296875 222.273438 492.167969 " fill-opacity="1" fill-rule="nonzero"/><path fill="#e2071b" d="M 586.050781 303.0625 C 596.785156 303.0625 605.605469 310.929688 607.550781 321.507812 C 611.789062 344.761719 628.554688 365.953125 656.890625 365.953125 C 674 365.953125 689.429688 358.011719 703.175781 342.128906 L 703.175781 336.246094 L 666.246094 336.246094 L 666.246094 304.398438 L 739.570312 304.398438 L 739.570312 403.644531 L 703.175781 403.644531 L 703.175781 384.933594 C 688.742188 398.296875 672.050781 404.980469 653.148438 404.980469 L 653.148438 404.941406 C 613.472656 404.941406 572.992188 377.679688 564.09375 328.609375 C 561.6875 315.28125 571.996094 303.0625 585.519531 303.0625 Z M 586.050781 303.0625 " fill-opacity="1" fill-rule="nonzero"/><path fill="#e2071b" d="M 588.074219 275.914062 C 601.554688 275.914062 612.480469 264.992188 612.480469 251.511719 C 612.480469 238.03125 601.554688 227.109375 588.074219 227.109375 C 574.59375 227.109375 563.671875 238.03125 563.671875 251.511719 C 563.671875 264.992188 574.59375 275.914062 588.074219 275.914062 Z M 588.074219 275.914062 " fill-opacity="1" fill-rule="nonzero"/><path fill="#e2071b" d="M 717.152344 275.914062 C 730.632812 275.914062 741.558594 264.992188 741.558594 251.511719 C 741.558594 238.03125 730.632812 227.109375 717.152344 227.109375 C 703.671875 227.109375 692.75 238.03125 692.75 251.511719 C 692.789062 264.992188 703.710938 275.914062 717.152344 275.914062 Z M 717.152344 275.914062 " fill-opacity="1" fill-rule="nonzero"/><path fill="#6a6b6e" d="M 616.234375 493.820312 C 610.871094 498.808594 604.632812 501.308594 597.585938 501.308594 C 592.933594 501.308594 588.535156 500.433594 584.433594 498.648438 C 580.328125 496.898438 576.710938 494.40625 573.605469 491.199219 C 570.503906 487.988281 568.078125 484.164062 566.269531 479.660156 C 564.457031 475.15625 563.585938 470.234375 563.585938 464.820312 C 563.585938 459.964844 564.492188 455.359375 566.269531 451.019531 C 568.078125 446.679688 570.535156 442.921875 573.703125 439.746094 C 576.871094 436.539062 580.585938 434.007812 584.917969 432.164062 C 589.246094 430.285156 593.902344 429.378906 598.882812 429.378906 C 605.472656 429.378906 611.195312 430.769531 616.109375 433.523438 C 621.019531 436.277344 624.703125 440.066406 627.160156 444.863281 L 615.039062 454.066406 C 613.457031 450.859375 611.128906 448.394531 608.125 446.613281 C 605.085938 444.863281 601.820312 443.957031 598.296875 443.957031 C 595.582031 443.957031 593.09375 444.507812 590.867188 445.609375 C 588.636719 446.710938 586.730469 448.234375 585.144531 450.210938 C 583.5625 452.1875 582.332031 454.453125 581.457031 457.046875 C 580.585938 459.636719 580.167969 462.425781 580.167969 465.4375 C 580.167969 468.515625 580.621094 471.335938 581.558594 473.925781 C 582.492188 476.519531 583.789062 478.785156 585.433594 480.667969 C 587.082031 482.578125 589.085938 484.035156 591.351562 485.105469 C 593.644531 486.175781 596.199219 486.695312 598.976562 486.695312 C 605.34375 486.695312 611.097656 483.742188 616.203125 477.816406 L 616.203125 475.613281 L 602.46875 475.613281 L 602.46875 463.71875 L 629.78125 463.71875 L 629.78125 500.785156 L 616.234375 500.785156 Z M 616.234375 493.820312 " fill-opacity="1" fill-rule="nonzero"/><path fill="#6a6b6e" d="M 663.714844 501.824219 C 659.320312 501.824219 655.410156 501.113281 651.917969 499.683594 C 648.425781 498.261719 645.484375 496.316406 643.0625 493.851562 C 640.636719 491.390625 638.796875 488.539062 637.535156 485.300781 C 636.273438 482.058594 635.628906 478.691406 635.628906 475.15625 C 635.628906 471.367188 636.273438 467.769531 637.535156 464.433594 C 638.796875 461.066406 640.636719 458.113281 643.03125 455.589844 C 645.421875 453.0625 648.363281 451.050781 651.855469 449.59375 C 655.34375 448.136719 659.320312 447.390625 663.746094 447.390625 C 668.175781 447.390625 672.152344 448.136719 675.609375 449.59375 C 679.066406 451.050781 681.976562 453.027344 684.367188 455.523438 C 686.761719 458.019531 688.570312 460.902344 689.796875 464.175781 C 691.027344 467.445312 691.640625 470.882812 691.640625 474.476562 C 691.640625 475.417969 691.609375 476.324219 691.542969 477.234375 C 691.476562 478.140625 691.382812 478.917969 691.253906 479.566406 L 652.53125 479.566406 C 652.789062 483.097656 654.085938 485.785156 656.378906 487.601562 C 658.671875 489.449219 661.289062 490.355469 664.199219 490.355469 C 666.527344 490.355469 668.757812 489.804688 670.921875 488.667969 C 673.089844 487.535156 674.542969 486.011719 675.253906 484.070312 L 688.796875 487.859375 C 686.730469 491.972656 683.5625 495.34375 679.230469 497.9375 C 674.929688 500.527344 669.757812 501.824219 663.714844 501.824219 Z M 674.769531 469.652344 C 674.445312 466.3125 673.25 463.6875 671.183594 461.746094 C 669.113281 459.800781 666.558594 458.863281 663.519531 458.863281 C 660.386719 458.863281 657.832031 459.832031 655.796875 461.808594 C 653.761719 463.785156 652.597656 466.378906 652.273438 469.652344 Z M 674.769531 469.652344 " fill-opacity="1" fill-rule="nonzero"/><path fill="#6a6b6e" d="M 717.367188 501.824219 C 712.90625 501.824219 708.542969 501.113281 704.214844 499.683594 C 699.882812 498.261719 696.230469 496.1875 693.257812 493.433594 L 698.945312 483.648438 C 702.144531 485.851562 705.246094 487.535156 708.253906 488.734375 C 711.292969 489.933594 714.167969 490.515625 716.980469 490.515625 C 719.050781 490.515625 720.632812 490.160156 721.765625 489.414062 C 722.894531 488.667969 723.445312 487.601562 723.445312 486.207031 C 723.445312 484.8125 722.734375 483.679688 721.3125 482.871094 C 719.886719 482.027344 717.367188 481.152344 713.78125 480.214844 C 710.257812 479.207031 707.28125 478.238281 704.859375 477.328125 C 702.433594 476.390625 700.464844 475.351562 698.945312 474.21875 C 697.425781 473.085938 696.324219 471.789062 695.648438 470.332031 C 694.96875 468.871094 694.644531 467.125 694.644531 465.148438 C 694.644531 462.488281 695.164062 460.058594 696.230469 457.855469 C 697.296875 455.652344 698.75 453.804688 700.625 452.25 C 702.46875 450.730469 704.699219 449.527344 707.25 448.652344 C 709.804688 447.78125 712.585938 447.359375 715.558594 447.359375 C 719.46875 447.359375 723.152344 447.910156 726.578125 448.945312 C 730.003906 450.015625 733.300781 451.925781 736.5 454.746094 L 730.328125 464.335938 C 727.355469 462.261719 724.671875 460.773438 722.34375 459.832031 C 720.019531 458.894531 717.753906 458.441406 715.558594 458.441406 C 713.84375 458.441406 712.359375 458.796875 711.160156 459.476562 C 709.964844 460.191406 709.386719 461.292969 709.386719 462.8125 C 709.386719 464.273438 710.03125 465.375 711.324219 466.117188 C 712.617188 466.863281 715.039062 467.640625 718.5625 468.515625 C 722.28125 469.519531 725.417969 470.527344 727.96875 471.496094 C 730.523438 472.5 732.589844 473.601562 734.207031 474.835938 C 735.789062 476.066406 736.953125 477.492188 737.695312 479.078125 C 738.441406 480.667969 738.796875 482.578125 738.796875 484.78125 C 738.796875 489.964844 736.859375 494.113281 733.011719 497.160156 C 729.132812 500.300781 723.929688 501.824219 717.367188 501.824219 Z M 717.367188 501.824219 " fill-opacity="1" fill-rule="nonzero"/><path fill="#6a6b6e" d="M 531.515625 570.710938 C 528.351562 570.710938 525.238281 570.179688 522.226562 569.140625 C 519.214844 568.101562 516.609375 566.585938 514.429688 564.609375 L 516.859375 561.015625 C 519.140625 562.886719 521.46875 564.28125 523.847656 565.214844 C 526.199219 566.152344 528.757812 566.609375 531.464844 566.609375 C 534.757812 566.609375 537.363281 565.949219 539.3125 564.609375 C 541.261719 563.292969 542.25 561.394531 542.25 558.941406 C 542.25 557.800781 541.996094 556.839844 541.464844 556.082031 C 540.933594 555.320312 540.175781 554.664062 539.164062 554.078125 C 538.148438 553.496094 536.859375 552.992188 535.339844 552.558594 C 533.792969 552.128906 532.023438 551.675781 529.996094 551.195312 C 527.667969 550.613281 525.621094 550.054688 523.898438 549.472656 C 522.175781 548.890625 520.757812 548.257812 519.644531 547.523438 C 518.53125 546.789062 517.695312 545.902344 517.136719 544.839844 C 516.582031 543.777344 516.328125 542.4375 516.328125 540.816406 C 516.328125 538.789062 516.734375 536.996094 517.542969 535.421875 C 518.351562 533.855469 519.441406 532.5625 520.835938 531.550781 C 522.203125 530.539062 523.820312 529.78125 525.671875 529.246094 C 527.519531 528.714844 529.492188 528.460938 531.566406 528.460938 C 534.683594 528.460938 537.515625 528.96875 540.074219 529.980469 C 542.628906 530.996094 544.679688 532.335938 546.25 534.007812 L 543.667969 537.121094 C 542.148438 535.550781 540.328125 534.386719 538.175781 533.601562 C 536.023438 532.816406 533.769531 532.4375 531.414062 532.4375 C 529.996094 532.4375 528.707031 532.589844 527.519531 532.867188 C 526.328125 533.144531 525.265625 533.601562 524.351562 534.234375 C 523.441406 534.867188 522.734375 535.652344 522.203125 536.613281 C 521.667969 537.574219 521.417969 538.714844 521.417969 540.003906 C 521.417969 541.09375 521.59375 541.980469 521.972656 542.664062 C 522.328125 543.347656 522.9375 543.929688 523.769531 544.410156 C 524.605469 544.914062 525.644531 545.347656 526.933594 545.726562 C 528.203125 546.105469 529.769531 546.511719 531.566406 546.941406 C 534.175781 547.574219 536.453125 548.183594 538.429688 548.8125 C 540.402344 549.445312 542.046875 550.15625 543.390625 550.992188 C 544.707031 551.824219 545.71875 552.839844 546.402344 554.027344 C 547.085938 555.21875 547.414062 556.6875 547.414062 558.410156 C 547.414062 562.152344 545.972656 565.117188 543.109375 567.292969 C 540.199219 569.597656 536.351562 570.710938 531.515625 570.710938 Z M 531.515625 570.710938 " fill-opacity="1" fill-rule="nonzero"/><path fill="#6a6b6e" d="M 571.714844 570.710938 C 568.753906 570.710938 566.019531 570.152344 563.566406 569.039062 C 561.085938 567.925781 558.957031 566.382812 557.136719 564.433594 C 555.3125 562.484375 553.894531 560.230469 552.882812 557.675781 C 551.871094 555.117188 551.363281 552.382812 551.363281 549.472656 C 551.363281 546.613281 551.871094 543.929688 552.882812 541.398438 C 553.894531 538.867188 555.3125 536.664062 557.109375 534.765625 C 558.90625 532.867188 561.058594 531.347656 563.539062 530.234375 C 566.046875 529.121094 568.753906 528.5625 571.667969 528.5625 C 574.628906 528.5625 577.363281 529.121094 579.816406 530.234375 C 582.296875 531.347656 584.398438 532.867188 586.171875 534.792969 C 587.941406 536.714844 589.308594 538.917969 590.296875 541.421875 C 591.285156 543.929688 591.789062 546.585938 591.789062 549.398438 C 591.789062 549.828125 591.789062 550.230469 591.789062 550.636719 C 591.789062 551.042969 591.765625 551.34375 591.714844 551.5 L 556.882812 551.5 C 557.035156 553.675781 557.539062 555.699219 558.402344 557.546875 C 559.261719 559.394531 560.375 560.988281 561.714844 562.355469 C 563.058594 563.699219 564.628906 564.761719 566.351562 565.519531 C 568.070312 566.28125 569.945312 566.660156 571.917969 566.660156 C 573.210938 566.660156 574.527344 566.484375 575.816406 566.105469 C 577.109375 565.75 578.324219 565.242188 579.410156 564.609375 C 580.5 563.976562 581.488281 563.21875 582.375 562.308594 C 583.257812 561.394531 583.941406 560.382812 584.398438 559.292969 L 589.007812 560.535156 C 588.375 562.054688 587.488281 563.421875 586.347656 564.636719 C 585.210938 565.851562 583.867188 566.9375 582.375 567.824219 C 580.855469 568.738281 579.210938 569.445312 577.386719 569.925781 C 575.589844 570.457031 573.691406 570.710938 571.714844 570.710938 Z M 586.703125 547.449219 C 586.550781 545.269531 586.042969 543.269531 585.183594 541.472656 C 584.324219 539.675781 583.234375 538.132812 581.917969 536.839844 C 580.601562 535.550781 579.058594 534.539062 577.3125 533.804688 C 575.5625 533.070312 573.714844 532.714844 571.742188 532.714844 C 569.769531 532.714844 567.894531 533.070312 566.121094 533.804688 C 564.347656 534.539062 562.804688 535.550781 561.488281 536.839844 C 560.171875 538.132812 559.082031 539.703125 558.300781 541.523438 C 557.488281 543.347656 557.007812 545.320312 556.855469 547.449219 Z M 586.703125 547.449219 " fill-opacity="1" fill-rule="nonzero"/><path fill="#6a6b6e" d="M 615.03125 570.457031 C 612.21875 570.457031 609.660156 569.875 607.332031 568.710938 C 605.003906 567.546875 603.003906 566.003906 601.332031 564.078125 C 599.636719 562.152344 598.320312 559.953125 597.386719 557.445312 C 596.449219 554.941406 595.992188 552.382812 595.992188 549.726562 C 595.992188 546.917969 596.449219 544.230469 597.359375 541.652344 C 598.269531 539.070312 599.5625 536.816406 601.234375 534.894531 C 602.902344 532.96875 604.878906 531.425781 607.207031 530.285156 C 609.511719 529.148438 612.09375 528.5625 614.902344 528.5625 C 618.394531 528.5625 621.40625 529.425781 623.964844 531.171875 C 626.523438 532.917969 628.699219 535.121094 630.523438 537.753906 L 630.523438 529.246094 L 635.28125 529.246094 L 635.28125 570.078125 C 635.28125 572.886719 634.75 575.367188 633.6875 577.519531 C 632.621094 579.671875 631.179688 581.492188 629.382812 582.9375 C 627.585938 584.378906 625.484375 585.492188 623.054688 586.226562 C 620.621094 586.960938 618.066406 587.316406 615.355469 587.316406 C 610.675781 587.316406 606.902344 586.480469 604.042969 584.808594 C 601.183594 583.136719 598.855469 580.910156 597.105469 578.101562 L 600.371094 575.519531 C 601.992188 578.125 604.121094 580.023438 606.777344 581.265625 C 609.433594 582.480469 612.292969 583.085938 615.355469 583.085938 C 617.332031 583.085938 619.207031 582.8125 620.976562 582.277344 C 622.75 581.722656 624.292969 580.9375 625.609375 579.847656 C 626.925781 578.785156 627.988281 577.417969 628.773438 575.796875 C 629.558594 574.152344 629.9375 572.253906 629.9375 570.050781 L 629.9375 562.003906 C 628.371094 564.609375 626.242188 566.660156 623.535156 568.179688 C 620.828125 569.722656 617.988281 570.457031 615.03125 570.457031 Z M 616.496094 566.027344 C 618.066406 566.027344 619.585938 565.75 621.105469 565.164062 C 622.625 564.585938 623.988281 563.824219 625.203125 562.863281 C 626.421875 561.902344 627.457031 560.8125 628.292969 559.625 C 629.128906 558.433594 629.660156 557.191406 629.9375 555.953125 L 629.9375 543.398438 C 629.355469 541.957031 628.597656 540.589844 627.609375 539.347656 C 626.621094 538.105469 625.507812 537.046875 624.242188 536.15625 C 623.003906 535.273438 621.660156 534.5625 620.21875 534.058594 C 618.773438 533.523438 617.332031 533.273438 615.890625 533.273438 C 613.613281 533.273438 611.558594 533.753906 609.765625 534.714844 C 607.964844 535.675781 606.449219 536.941406 605.207031 538.511719 C 603.964844 540.082031 603.003906 541.851562 602.347656 543.828125 C 601.6875 545.804688 601.382812 547.800781 601.382812 549.828125 C 601.382812 552.003906 601.761719 554.105469 602.546875 556.082031 C 603.335938 558.054688 604.394531 559.773438 605.789062 561.269531 C 607.15625 562.761719 608.777344 563.925781 610.597656 564.785156 C 612.398438 565.597656 614.371094 566.027344 616.496094 566.027344 Z M 616.496094 566.027344 " fill-opacity="1" fill-rule="nonzero"/><path fill="#6a6b6e" d="M 657.785156 570.710938 C 653.355469 570.710938 650.0625 569.242188 647.914062 566.304688 C 645.761719 563.371094 644.671875 558.988281 644.671875 553.144531 L 644.671875 529.246094 L 649.988281 529.246094 L 649.988281 552.179688 C 649.988281 561.394531 653.125 566.003906 659.429688 566.003906 C 661 566.003906 662.519531 565.75 664.035156 565.21875 C 665.554688 564.6875 666.949219 563.953125 668.214844 562.964844 C 669.480469 561.976562 670.644531 560.8125 671.65625 559.445312 C 672.667969 558.105469 673.480469 556.5625 674.113281 554.839844 L 674.113281 529.246094 L 679.429688 529.246094 L 679.429688 563.039062 C 679.429688 564.507812 680.0625 565.21875 681.300781 565.21875 L 681.300781 569.902344 C 680.667969 570 680.164062 570.050781 679.78125 570.050781 C 679.402344 570.050781 679.125 570.050781 678.972656 570.050781 C 677.734375 570 676.71875 569.546875 675.933594 568.738281 C 675.152344 567.902344 674.769531 566.789062 674.769531 565.371094 L 674.769531 560.6875 C 673 563.851562 670.59375 566.332031 667.558594 568.050781 C 664.464844 569.824219 661.226562 570.710938 657.785156 570.710938 Z M 657.785156 570.710938 " fill-opacity="1" fill-rule="nonzero"/><path fill="#6a6b6e" d="M 709.882812 533.929688 C 706.285156 534.03125 703.171875 535.019531 700.515625 536.890625 C 697.859375 538.765625 695.984375 541.347656 694.894531 544.613281 L 694.894531 569.902344 L 689.578125 569.902344 L 689.578125 529.246094 L 694.566406 529.246094 L 694.566406 538.992188 C 696.085938 535.878906 698.109375 533.425781 700.667969 531.652344 C 703.222656 529.882812 705.957031 528.996094 708.867188 528.996094 C 709.273438 528.996094 709.628906 529.019531 709.882812 529.070312 Z M 709.882812 533.929688 " fill-opacity="1" fill-rule="nonzero"/><path fill="#6a6b6e" d="M 730.589844 570.710938 C 727.628906 570.710938 724.917969 570.152344 722.460938 569.039062 C 720.007812 567.925781 717.90625 566.40625 716.109375 564.484375 C 714.308594 562.558594 712.917969 560.332031 711.929688 557.777344 C 710.945312 555.21875 710.4375 552.535156 710.4375 549.726562 C 710.4375 546.863281 710.945312 544.15625 711.957031 541.601562 C 712.96875 539.042969 714.386719 536.816406 716.183594 534.894531 C 717.980469 532.96875 720.109375 531.425781 722.539062 530.285156 C 724.996094 529.148438 727.652344 528.5625 730.589844 528.5625 C 733.5 528.5625 736.183594 529.148438 738.664062 530.285156 C 741.144531 531.425781 743.269531 532.96875 745.070312 534.894531 C 746.867188 536.816406 748.257812 539.042969 749.269531 541.601562 C 750.285156 544.15625 750.789062 546.863281 750.789062 549.726562 C 750.789062 552.535156 750.285156 555.21875 749.296875 557.777344 C 748.308594 560.332031 746.917969 562.558594 745.117188 564.484375 C 743.320312 566.40625 741.195312 567.925781 738.714844 569.039062 C 736.261719 570.152344 733.550781 570.710938 730.589844 570.710938 Z M 715.828125 549.777344 C 715.828125 552.078125 716.210938 554.183594 716.996094 556.128906 C 717.78125 558.078125 718.816406 559.800781 720.160156 561.292969 C 721.472656 562.785156 723.046875 563.925781 724.839844 564.761719 C 726.640625 565.597656 728.539062 566.003906 730.589844 566.003906 C 732.613281 566.003906 734.539062 565.570312 736.335938 564.710938 C 738.132812 563.851562 739.703125 562.6875 741.066406 561.191406 C 742.410156 559.699219 743.5 557.980469 744.257812 556.003906 C 745.042969 554.027344 745.421875 551.902344 745.421875 549.601562 C 745.421875 547.371094 745.042969 545.246094 744.257812 543.246094 C 743.472656 541.246094 742.410156 539.5 741.066406 538.003906 C 739.703125 536.511719 738.132812 535.347656 736.335938 534.488281 C 734.539062 533.628906 732.640625 533.199219 730.589844 533.199219 C 728.5625 533.199219 726.664062 533.628906 724.890625 534.488281 C 723.121094 535.347656 721.550781 536.539062 720.210938 538.03125 C 718.867188 539.550781 717.78125 541.296875 717.019531 543.296875 C 716.234375 545.347656 715.828125 547.5 715.828125 549.777344 Z M 715.828125 549.777344 " fill-opacity="1" fill-rule="nonzero"/><path fill="#6a6b6e" d="M 771.140625 570.710938 C 767.980469 570.710938 764.863281 570.179688 761.851562 569.140625 C 758.839844 568.101562 756.230469 566.585938 754.054688 564.609375 L 756.484375 561.015625 C 758.761719 562.886719 761.089844 564.28125 763.472656 565.214844 C 765.851562 566.152344 768.382812 566.609375 771.089844 566.609375 C 774.382812 566.609375 776.988281 565.949219 778.941406 564.609375 C 780.886719 563.292969 781.875 561.394531 781.875 558.941406 C 781.875 557.800781 781.621094 556.839844 781.089844 556.082031 C 780.558594 555.320312 779.800781 554.664062 778.785156 554.078125 C 777.773438 553.496094 776.507812 552.992188 774.964844 552.558594 C 773.421875 552.128906 771.648438 551.675781 769.625 551.195312 C 767.292969 550.613281 765.242188 550.054688 763.523438 549.472656 C 761.800781 548.890625 760.382812 548.257812 759.269531 547.523438 C 758.15625 546.789062 757.320312 545.902344 756.765625 544.839844 C 756.207031 543.777344 755.953125 542.4375 755.953125 540.816406 C 755.953125 538.789062 756.359375 536.996094 757.167969 535.421875 C 757.976562 533.855469 759.066406 532.5625 760.433594 531.550781 C 761.800781 530.539062 763.421875 529.78125 765.269531 529.246094 C 767.117188 528.714844 769.09375 528.460938 771.167969 528.460938 C 774.28125 528.460938 777.117188 528.96875 779.671875 529.980469 C 782.230469 530.996094 784.28125 532.335938 785.851562 534.007812 L 783.265625 537.121094 C 781.75 535.550781 779.925781 534.386719 777.773438 533.601562 C 775.621094 532.816406 773.371094 532.4375 771.015625 532.4375 C 769.597656 532.4375 768.304688 532.589844 767.117188 532.867188 C 765.925781 533.144531 764.863281 533.601562 763.953125 534.234375 C 763.042969 534.867188 762.332031 535.652344 761.800781 536.613281 C 761.269531 537.574219 761.015625 538.714844 761.015625 540.003906 C 761.015625 541.09375 761.195312 541.980469 761.574219 542.664062 C 761.953125 543.347656 762.535156 543.929688 763.371094 544.410156 C 764.207031 544.914062 765.242188 545.347656 766.535156 545.726562 C 767.800781 546.105469 769.371094 546.511719 771.191406 546.941406 C 773.800781 547.574219 776.078125 548.183594 778.050781 548.8125 C 780.027344 549.445312 781.671875 550.15625 783.011719 550.992188 C 784.332031 551.824219 785.34375 552.839844 786.027344 554.027344 C 786.710938 555.21875 787.039062 556.6875 787.039062 558.410156 C 787.039062 562.152344 785.597656 565.117188 782.738281 567.292969 C 779.824219 569.597656 775.976562 570.710938 771.140625 570.710938 Z M 771.140625 570.710938 " fill-opacity="1" fill-rule="nonzero"/><path stroke-linecap="round" transform="matrix(0.000000000000000046, -0.750517, 0.75, 0.000000000000000046, 414.612223, 574.383039)" fill="none" stroke-linejoin="miter" d="M 4.50241 4.501412 L 449.196141 4.501412 " stroke="#007a8a" stroke-width="9" stroke-opacity="1" stroke-miterlimit="4"/></svg>